<svg xmlns="http://www.w3.org/2000/svg" viewBox="0 0 512 512" width="512" height="512">
  <rect width="512" height="512" fill="#3b82f6" rx="80"/>
  <g fill="#ffffff">
    <!-- Leaf icon representing agriculture -->
    <path d="M256 80c-88 0-160 72-160 160 0 88 72 160 160 160s160-72 160-160c0-88-72-160-160-160zm0 280c-66 0-120-54-120-120s54-120 120-120 120 54 120 120-54 120-120 120z"/>
    <path d="M256 180c-33 0-60 27-60 60s27 60 60 60 60-27 60-60-27-60-60-60zm0 90c-17 0-30-13-30-30s13-30 30-30 30 13 30 30-13 30-30 30z"/>
    <!-- Water drop -->
    <path d="M340 300c0 22-18 40-40 40s-40-18-40-40c0-22 40-80 40-80s40 58 40 80z"/>
  </g>
</svg>
